<svg xmlns="http://www.w3.org/2000/svg" viewBox="0 0 64 64">
  <defs>
    <linearGradient id="background" x1="8" y1="6" x2="56" y2="58" gradientUnits="userSpaceOnUse">
      <stop stop-color="#818cf8"/>
      <stop offset="1" stop-color="#22d3ee"/>
    </linearGradient>
    <linearGradient id="page" x1="19" y1="21" x2="46" y2="47" gradientUnits="userSpaceOnUse">
      <stop stop-color="#ffffff"/>
      <stop offset="1" stop-color="#e0f2fe"/>
    </linearGradient>
  </defs>
  <rect width="64" height="64" rx="16" fill="#09090b"/>
  <rect x="3" y="3" width="58" height="58" rx="13" fill="url(#background)"/>
  <path d="M14 22.5c0-2.2 1.8-4 4-4h7.5c2.5 0 4.8 1.2 6.5 3.1a8.7 8.7 0 0 1 6.5-3.1H46c2.2 0 4 1.8 4 4v23.3c0 1.3-1.2 2.2-2.4 1.9l-7.4-1.8a8.7 8.7 0 0 0-6.7 1.1l-1.5.9-1.5-.9a8.7 8.7 0 0 0-6.7-1.1l-7.4 1.8a2 2 0 0 1-2.4-1.9V22.5Z" fill="url(#page)"/>
  <path d="M32 23v24" fill="none" stroke="#4f46e5" stroke-linecap="round" stroke-width="2.5"/>
  <path d="M19.5 25.5h6.8M19.5 31h7.8M44.5 34.5h-6.8M44.5 40h-7.8" fill="none" stroke="#818cf8" stroke-linecap="round" stroke-width="2"/>
  <path d="m44.5 12 1.4 3.6 3.6 1.4-3.6 1.4-1.4 3.6-1.4-3.6-3.6-1.4 3.6-1.4 1.4-3.6Z" fill="#fef08a" stroke="#09090b" stroke-linejoin="round" stroke-width="1.5"/>
</svg>
